<svg viewBox="0 0 1024 1024" version="1.1" xmlns="http://www.w3.org/2000/svg" width="24" height="24"><path d="M858.35190071 779.96962625c-23.68280094 3.96117989-48.08198523 5.94176979-72.4390286 5.94177095-244.28682531 0-442.47225651-198.18543119-442.47225649-442.47225648 0-83.60618605 24.35704455-165.27392303 68.47784871-235.05811924A419.37941855 419.37941855 0 0 0 111.66943381 512c0 232.44542543 188.95672397 421.40214937 421.40214822 421.40214937 127.09488866 0 246.26741641-57.94279516 325.28031868-153.43252312z m133.66876234-55.96220524A507.15748655 507.15748655 0 0 1 533.07158203 1017.68257903C254.56690223 1017.68257903 27.389003 790.50467982 27.389003 512A503.5755676 503.5755676 0 0 1 513.98206484 6.99166459a41.12884941 41.12884941 0 0 1 40.15962546 25.66339087c7.24811728 16.47682452 2.65483354 35.56634172-9.8608111 47.40774159A352.79787918 352.79787918 0 0 0 427.72104526 343.43914072c0 197.55332731 160.68063926 358.19182686 358.19182685 358.19182685a351.9550744 351.9550744 0 0 0 150.14558571-33.58575179 42.1402154 42.1402154 0 0 1 55.96220523 55.96220523z"></path></svg>
